mtllib materials.mtl
v 0.32 -0.4179997 -0.3199999
v 0.32 -0.4179997 0.3200001
v 0.32 -0.007999778 0.3200001
v 0.32 -0.007999897 0.16
v 0.32 -0.007999897 -0.16
v 0.32 -0.007999897 -0.32
v -0.3199999 -0.4179999 -0.32
v -0.32 -0.007999897 -0.3200001
v -0.32 -0.007999897 -0.16
v -0.3200001 -0.007999897 0.16
v -0.3200001 -0.007999897 0.3199999
v -0.32 -0.4179997 0.3199999
v -0.2591999 -0.4179999 -0.2592
v 0.2591999 -0.4179997 -0.2591999
v 0.16 -0.007999897 -0.16
v 0.16 -0.007999897 -0.32
v -0.16 -0.007999897 -0.32
v -0.16 -0.007999897 0.32
v 0.16 -0.007999778 0.3200001
v -0.16 -0.007999897 0.16
v 0.16 -0.007999897 0.16
v -0.16 -0.007999897 -0.16
v -0.2592 -0.4179997 0.2591999
v 0.2591999 -0.4179997 0.2592
v -0.2592 -0.09799993 -0.2592002
v 0.2591998 -0.09799981 -0.2592001
v -0.2592 -0.09799981 0.2591997
v 0.2591998 -0.09799981 0.2591999
v -0.1599998 0.09200001 -0.25
v -0.2049999 0.09200001 -0.2379423
v -0.2049999 -0.008000016 -0.2379423
v -0.16 -0.008000016 -0.25
v -0.2379422 0.09199989 -0.2050001
v -0.2379422 -0.008000016 -0.205
v -0.2499999 0.09200013 -0.1600001
v -0.2499999 -0.008000016 -0.16
v -0.2379422 0.09200013 -0.1150001
v -0.2379422 -0.007999897 -0.1150001
v -0.2049999 0.09200013 -0.08205783
v -0.2049999 -0.007999897 -0.08205777
v -0.16 0.09200013 -0.07000017
v -0.1599999 -0.007999897 -0.07000005
v -0.115 0.09200013 -0.08205783
v -0.1149999 -0.007999897 -0.08205777
v -0.08205771 0.09200013 -0.1150001
v -0.08205771 -0.007999897 -0.1150001
v -0.06999993 0.09200001 -0.1600001
v -0.06999999 -0.007999897 -0.16
v -0.08205771 0.09200001 -0.2050001
v -0.08205771 -0.007999897 -0.205
v -0.115 0.09199989 -0.2379424
v -0.1149999 -0.008000016 -0.2379423
v -0.16 -0.007999897 -0.16
v 0.1600002 0.09200001 -0.25
v 0.1150001 0.09200013 -0.2379423
v 0.1150001 -0.007999897 -0.2379423
v 0.16 -0.007999897 -0.25
v 0.08205783 0.09200001 -0.205
v 0.08205777 -0.007999897 -0.205
v 0.07000017 0.09200025 -0.16
v 0.07000011 -0.007999897 -0.16
v 0.08205783 0.09200013 -0.1150001
v 0.08205777 -0.007999897 -0.1150001
v 0.1150001 0.09200013 -0.08205777
v 0.1150001 -0.007999897 -0.08205777
v 0.1600001 0.09200013 -0.07000005
v 0.16 -0.007999897 -0.07000005
v 0.205 0.09200001 -0.08205777
v 0.205 -0.008000016 -0.08205777
v 0.2379423 0.09200001 -0.1150001
v 0.2379423 -0.008000016 -0.1150001
v 0.2500001 0.09199989 -0.16
v 0.2499999 -0.008000016 -0.16
v 0.2379423 0.09200001 -0.205
v 0.2379423 -0.008000016 -0.205
v 0.205 0.09199989 -0.2379423
v 0.205 -0.007999897 -0.2379423
v 0.16 -0.007999897 -0.1600001
v 0.1600001 0.09199989 0.06999999
v 0.1150001 0.09200001 0.08205771
v 0.1150001 -0.008000016 0.08205783
v 0.1600001 -0.008000016 0.07000011
v 0.08205777 0.09199989 0.1149999
v 0.08205783 -0.008000016 0.1150001
v 0.07000011 0.09200013 0.1599999
v 0.07000011 -0.007999897 0.16
v 0.08205777 0.09200013 0.2049999
v 0.08205777 -0.007999897 0.205
v 0.115 0.09200013 0.2379422
v 0.1150001 -0.007999897 0.2379423
v 0.16 0.09200025 0.2499999
v 0.16 -0.007999897 0.25
v 0.2049999 0.09200013 0.2379422
v 0.205 -0.007999897 0.2379423
v 0.2379423 0.09200013 0.2049999
v 0.2379423 -0.007999897 0.205
v 0.2500001 0.09200001 0.16
v 0.2500001 -0.007999897 0.1600001
v 0.2379423 0.09200001 0.115
v 0.2379423 -0.008000016 0.1150001
v 0.205 0.09199989 0.08205771
v 0.205 -0.008000016 0.08205783
v 0.16 -0.007999897 0.1600001
v -0.1599999 0.09200013 0.07000023
v -0.205 0.09200025 0.08205789
v -0.205 -0.007999778 0.08205771
v -0.16 -0.007999778 0.07000005
v -0.2379423 0.09200001 0.1150001
v -0.2379422 -0.007999897 0.115
v -0.2499999 0.09200013 0.1600001
v -0.2499999 -0.007999897 0.16
v -0.2379423 0.09200001 0.2050001
v -0.2379423 -0.008000016 0.2049999
v -0.205 0.09199989 0.2379424
v -0.205 -0.008000135 0.2379422
v -0.1600001 0.09200001 0.2500001
v -0.16 -0.008000135 0.2499999
v -0.1150001 0.09199989 0.2379424
v -0.115 -0.008000016 0.2379422
v -0.08205777 0.09200001 0.2050002
v -0.08205777 -0.008000016 0.205
v -0.06999999 0.09200001 0.1600002
v -0.07000005 -0.007999897 0.16
v -0.08205777 0.09200013 0.1150002
v -0.08205777 -0.007999897 0.1150001
v -0.1150001 0.09200013 0.08205789
v -0.115 -0.007999778 0.08205771
v -0.16 -0.007999897 0.16
vn 1 -8.788291E-09 7.538765E-08
vn -1 -8.15273E-08 -1.452368E-07
vn 2.025694E-07 -1 1.434522E-08
vn -1.799296E-07 1 2.704663E-07
vn 9.317363E-08 -4.571775E-08 -1
vn -1.863059E-07 -7.240124E-08 1
vn -1.799294E-07 1 -4.280256E-07
vn 1.925995E-07 1 -9.624205E-08
vn 6.335015E-09 1 2.028977E-08
vn 6.335015E-09 1 2.028975E-08
vn 6.335032E-09 1 -4.758035E-08
vn 6.335028E-09 1 -1.847657E-08
vn 6.335036E-09 1 2.506284E-08
vn 6.334975E-09 1 -8.296586E-07
vn -3.57452E-08 -1 1.992097E-07
vn -3.247832E-09 -1 1.077894E-07
vn -3.574509E-08 -1 2.5606E-09
vn -2.090871E-07 4.64813E-07 1
vn 1 2.250856E-07 8.774776E-08
vn 2.486827E-07 -5.579453E-07 -1
vn -1 -4.442084E-07 2.723032E-08
vn 1.155417E-07 -1 1.313499E-07
vn -0.2588187 -5.893132E-07 -0.9659259
vn -0.7071065 -8.367996E-07 -0.7071071
vn -0.965926 -5.627024E-07 -0.2588185
vn -0.9659259 -7.629181E-08 0.2588187
vn -0.7071066 3.444672E-07 0.7071069
vn -0.2588191 6.682721E-07 0.9659258
vn 0.2588192 8.711665E-07 0.9659258
vn 0.7071068 8.69876E-07 0.7071068
vn 0.9659257 1.994151E-07 0.2588197
vn 0.9659256 -1.759728E-07 -0.2588198
vn 0.7071069 -2.250763E-07 -0.7071068
vn 0.2588188 -7.396118E-07 -0.9659259
vn 9.088411E-08 1 -1.082851E-06
vn 2.996678E-08 -1 8.951295E-07
vn 5.81862E-07 -1 9.199026E-07
vn 2.996674E-08 -1 4.127552E-07
vn 5.818619E-07 -1 4.064135E-07
vn -0.2588187 4.04114E-07 -0.9659259
vn -0.7071065 3.238376E-07 -0.7071071
vn -0.965926 4.541524E-07 -0.2588186
vn -0.9659259 5.24316E-07 0.2588186
vn -0.7071067 3.678946E-07 0.7071069
vn -0.2588192 1.082425E-07 0.9659258
vn 0.2588191 -1.222609E-07 0.9659258
vn 0.7071067 -2.907611E-07 0.7071069
vn 0.9659257 -8.174404E-07 0.2588198
vn 0.9659256 -7.765796E-07 -0.2588198
vn 0.7071069 -2.48504E-07 -0.7071067
vn 0.2588189 -1.795819E-07 -0.9659259
vn 9.281443E-07 1 -2.787222E-07
vn -8.072935E-07 -1 9.100083E-08
vn -2.553983E-07 -1 1.157741E-07
vn -8.072935E-07 -1 -3.913734E-07
vn -2.553983E-07 -1 -3.97715E-07
vn -0.2588183 -9.364314E-07 -0.9659261
vn -0.7071062 -1.045838E-06 -0.7071074
vn -0.9659259 -5.776483E-07 -0.2588189
vn -0.9659261 1.068585E-07 0.2588183
vn -0.7071069 6.766392E-07 0.7071066
vn -0.2588196 1.06046E-06 0.9659257
vn 0.2588187 1.218285E-06 0.9659259
vn 0.7071065 1.078914E-06 0.7071071
vn 0.9659256 2.143615E-07 0.2588201
vn 0.9659258 -3.591235E-07 -0.2588194
vn 0.7071072 -5.572483E-07 -0.7071065
vn 0.2588193 -1.1318E-06 -0.9659258
vn 1.779537E-07 1 -1.465544E-06
vn -5.710267E-08 -1 1.277823E-06
vn 4.947925E-07 -1 1.302596E-06
vn -5.710251E-08 -1 7.954483E-07
vn 4.947927E-07 -1 7.891069E-07
vn -0.2588184 1.773905E-06 -0.9659261
vn -0.7071063 9.263107E-07 -0.7071073
vn -0.9659259 1.278745E-07 -0.2588188
vn -0.9659261 -6.432842E-07 0.2588184
vn -0.7071069 -1.328172E-06 0.7071067
vn -0.2588195 -1.661831E-06 0.9659258
vn 0.2588188 -1.492051E-06 0.9659259
vn 0.7071065 -8.932337E-07 0.7071071
vn 0.9659256 -4.911647E-07 0.2588201
vn 0.9659257 3.910223E-07 -0.2588195
vn 0.7071071 1.447563E-06 -0.7071065
vn 0.2588192 1.590491E-06 -0.9659258
vn 1.54856E-07 1 1.34659E-06
vn -3.400499E-08 -1 -1.534312E-06
vn 5.178902E-07 -1 -1.509538E-06
vn -3.400485E-08 -1 -2.016686E-06
vn 5.178903E-07 -1 -2.023027E-06
vt 0.09251284 0.07669329
vt 0.1445918 0.03949404
vt 0.1684225 0.0728571
vt 0.1554028 0.08215691
vt 0.1293633 0.1007565
vt 0.1163436 0.1100563
vt -0.09251283 0.07669327
vt -0.1163436 0.1100563
vt -0.1293633 0.1007565
vt -0.1554028 0.08215688
vt -0.1684225 0.07285707
vt -0.1445918 0.03949402
vt 0.06550534 0.09212621
vt 0.0439798 0.03185474
vt 0.05175052 0.03553561
vt 0.0691862 0.08435549
vt -0.06550531 0.09212623
vt -0.08057318 0.08674484
vt -0.07519179 0.07167698
vt -0.06012392 0.07705836
vt -0.05526168 0.1492628
vt -0.09193318 0.1675985
vt -0.09908859 0.1532877
vt -0.1133994 0.1246661
vt -0.1205548 0.1103552
vt -0.08388334 0.09201945
vt 0.05526168 0.1492628
vt 0.08388335 0.09201947
vt 0.1205548 0.1103552
vt 0.1133994 0.1246661
vt 0.09908861 0.1532877
vt 0.09193319 0.1675986
vt -0.1203955 0.05553282
vt -0.1096327 0.02539708
vt -0.09456486 0.03077846
vt -0.1053276 0.06091421
vt -0.1096327 0.02539702
vt -0.1042513 0.01032915
vt -0.08918341 0.01571053
vt -0.09456479 0.0307784
vt -0.09456478 0.03077843
vt -0.06442904 0.04154121
vt -0.07519181 0.07167695
vt -0.1053276 0.06091418
vt -0.08918341 0.01571056
vt -0.05904766 0.02647333
vt -0.06442904 0.04154121
vt -0.09456478 0.03077843
vt -0.05904767 0.02647333
vt -0.0439798 0.03185472
vt -0.04936118 0.04692259
vt -0.06442905 0.0415412
vt -0.06442905 0.0415412
vt -0.04936118 0.04692259
vt -0.06012394 0.07705833
vt -0.07519182 0.07167695
vt -0.08057319 0.08674482
vt -0.1107089 0.07598205
vt -0.1053276 0.06091418
vt -0.07519181 0.07167695
vt -0.110709 0.07598204
vt -0.1257769 0.07060067
vt -0.1203955 0.05553279
vt -0.1053277 0.06091417
vt 0.04397981 0.03185471
vt 0.1042513 0.01032918
vt 0.1005704 0.0180999
vt 0.05175053 0.03553558
vt 0.1042513 0.01032919
vt 0.1257768 0.07060067
vt 0.1180061 0.06691979
vt 0.1005704 0.01809991
vt 0.1257768 0.07060066
vt 0.06550533 0.09212619
vt 0.0691862 0.08435547
vt 0.1180061 0.06691979
vt 0.0579807 0.1438247
vt 0.08116424 0.09745758
vt 0.1097859 0.1117684
vt 0.08660237 0.1581355
vt 0.09746034 0.07315932
vt 0.1396443 0.04302793
vt 0.1582439 0.0690674
vt 0.11606 0.09919879
vt -0.08116422 0.09745758
vt -0.05798066 0.1438247
vt -0.08660232 0.1581355
vt -0.1097859 0.1117684
vt -0.1396443 0.04302789
vt -0.09746034 0.07315929
vt -0.11606 0.09919876
vt -0.1582439 0.06906735
vt 0.0691862 0.08435548
vt 0.05175052 0.0355356
vt 0.1005704 0.01809992
vt 0.1180061 0.0669198
vt -0.1302459 0.1156818
vt -0.1322359 0.1114695
vt -0.1231942 0.1071979
vt -0.1212042 0.1114102
vt -0.1425834 0.08814835
vt -0.144736 0.08401676
vt -0.1358676 0.07939608
vt -0.1337149 0.08352766
vt -0.146014 0.08579438
vt -0.1489853 0.08220623
vt -0.1412833 0.0758282
vt -0.138312 0.07941636
vt -0.08605532 0.1548154
vt -0.0906464 0.1540243
vt -0.08894834 0.1441695
vt -0.08435725 0.1449606
vt 0.05794235 0.1732647
vt 0.05449525 0.1763986
vt 0.04776832 0.1689994
vt 0.05121543 0.1658655
vt 0.1110721 0.1424827
vt 0.1087577 0.1465259
vt 0.100079 0.1415581
vt 0.1023934 0.1375149
vt 0.1322359 0.1114695
vt 0.1302459 0.1156818
vt 0.1212042 0.1114102
vt 0.1231942 0.1071979
vt 0.144736 0.08401676
vt 0.1425834 0.08814833
vt 0.1337149 0.08352764
vt 0.1358676 0.07939607
vt 0.1489853 0.08220623
vt 0.146014 0.08579438
vt 0.138312 0.07941637
vt 0.1412833 0.07582821
vt 0.09064608 0.1540245
vt 0.086055 0.1548156
vt 0.08435696 0.1449608
vt 0.08894804 0.1441698
vt -0.05449521 0.1763986
vt -0.05794232 0.1732647
vt -0.0512154 0.1658655
vt -0.0477683 0.1689994
vt -0.1087577 0.1465259
vt -0.1110721 0.1424827
vt -0.1023934 0.1375148
vt -0.100079 0.141558
vt -0.05860255 0.04840047
vt -0.06281283 0.05039482
vt -0.06745621 0.05001684
vt -0.0712885 0.0473678
vt -0.07328285 0.04315751
vt -0.07290486 0.03851414
vt -0.07025583 0.03468185
vt -0.06604555 0.0326875
vt -0.06140216 0.03306549
vt -0.05756987 0.03571452
vt -0.05557553 0.0399248
vt -0.05595352 0.04456819
vt 0.05595349 0.04456821
vt 0.06442916 0.04154119
vt 0.06745619 0.05001686
vt 0.06281281 0.05039485
vt 0.05860253 0.04840051
vt 0.05595352 0.04456829
vt 0.05557553 0.03992491
vt 0.05756988 0.03571464
vt 0.06140217 0.0330656
vt 0.06442919 0.04154127
vt 0.0644291 0.0415412
vt 0.07290478 0.03851418
vt 0.07328276 0.04315756
vt 0.07128842 0.04736784
vt 0.06745613 0.05001687
vt 0.0614021 0.03306561
vt 0.06604549 0.03268763
vt 0.07025576 0.03468197
vt 0.07290481 0.03851426
vt 0.06442913 0.04154129
vt -0.1170427 0.1436296
vt -0.1190327 0.1394173
vt -0.1099909 0.1351457
vt -0.1080009 0.139358
vt -0.132128 0.1082155
vt -0.1342807 0.1040839
vt -0.1254122 0.09946318
vt -0.1232596 0.1035948
vt -0.1407315 0.0921735
vt -0.1437029 0.08858535
vt -0.1360009 0.08220731
vt -0.1330296 0.08579548
vt -0.09421726 0.1534091
vt -0.09880833 0.152618
vt -0.09711026 0.1427632
vt -0.09251918 0.1435543
vt 0.04119978 0.188486
vt 0.03775267 0.1916199
vt 0.03102575 0.1842207
vt 0.03447286 0.1810868
vt 0.09571674 0.1693083
vt 0.09340234 0.1733515
vt 0.08472361 0.1683837
vt 0.087038 0.1643405
vt 0.1190327 0.1394173
vt 0.1170427 0.1436296
vt 0.1080009 0.139358
vt 0.1099909 0.1351457
vt 0.1342806 0.1040839
vt 0.132128 0.1082154
vt 0.1232595 0.1035947
vt 0.1254122 0.09946316
vt 0.1437029 0.08858538
vt 0.1407315 0.09217353
vt 0.1330296 0.08579551
vt 0.1360009 0.08220736
vt 0.09880804 0.1526182
vt 0.09421697 0.1534093
vt 0.09251891 0.1435545
vt 0.09711 0.1427635
vt -0.03775264 0.1916199
vt -0.04119974 0.188486
vt -0.03447285 0.1810868
vt -0.03102573 0.1842207
vt -0.09340236 0.1733515
vt -0.09571675 0.1693083
vt -0.08703803 0.1643405
vt -0.08472364 0.1683837
vt -0.06936517 0.0785361
vt -0.07357545 0.08053044
vt -0.07821883 0.08015246
vt -0.08205112 0.07750341
vt -0.08404547 0.07329313
vt -0.08366748 0.06864975
vt -0.08101844 0.06481747
vt -0.07680816 0.06282312
vt -0.07216478 0.06320111
vt -0.06833249 0.06585015
vt -0.06633814 0.07006043
vt -0.06671614 0.07470382
vt 0.06671611 0.07470384
vt 0.07519178 0.07167681
vt 0.07821881 0.08015248
vt 0.07357543 0.08053048
vt 0.06936515 0.07853613
vt 0.06671614 0.07470393
vt 0.06633816 0.07006055
vt 0.0683325 0.06585027
vt 0.07216479 0.06320123
vt 0.07519181 0.0716769
vt 0.07519173 0.07167682
vt 0.0836674 0.06864979
vt 0.0840454 0.07329318
vt 0.08205105 0.07750346
vt 0.07821876 0.08015249
vt 0.07216473 0.06320124
vt 0.0768081 0.06282325
vt 0.08101839 0.06481759
vt 0.08366743 0.06864988
vt 0.07519175 0.07167691
vt -0.1205803 0.136141
vt -0.1225704 0.1319287
vt -0.1135286 0.1276571
vt -0.1115386 0.1318695
vt -0.1425833 0.08814835
vt -0.144736 0.08401676
vt -0.1358675 0.07939608
vt -0.1337149 0.08352766
vt -0.1604457 0.06836669
vt -0.1634171 0.06477854
vt -0.1557151 0.05840051
vt -0.1527438 0.06198867
vt -0.1246781 0.1481602
vt -0.1292692 0.1473692
vt -0.1275711 0.1375144
vt -0.12298 0.1383055
vt 0.0244571 0.2037073
vt 0.02100999 0.2068412
vt 0.01428307 0.1994419
vt 0.01773018 0.196308
vt 0.0916021 0.1764963
vt 0.08928772 0.1805395
vt 0.08060897 0.1755716
vt 0.08292337 0.1715284
vt 0.1225704 0.1319287
vt 0.1205803 0.136141
vt 0.1115386 0.1318694
vt 0.1135286 0.1276571
vt 0.144736 0.08401674
vt 0.1425833 0.08814833
vt 0.1337149 0.08352764
vt 0.1358675 0.07939605
vt 0.1634171 0.06477857
vt 0.1604457 0.06836673
vt 0.1527437 0.06198871
vt 0.1557151 0.05840055
vt 0.1292689 0.1473695
vt 0.1246778 0.1481605
vt 0.1229797 0.1383058
vt 0.1275708 0.1375147
vt -0.02100994 0.2068412
vt -0.02445705 0.2037073
vt -0.01773014 0.196308
vt -0.01428303 0.1994419
vt -0.08928772 0.1805395
vt -0.0916021 0.1764963
vt -0.08292338 0.1715284
vt -0.08060899 0.1755716
vt -0.09950109 0.06777345
vt -0.1037114 0.0697678
vt -0.1083548 0.06938982
vt -0.1121871 0.06674077
vt -0.1141814 0.06253049
vt -0.1138034 0.05788711
vt -0.1111544 0.05405482
vt -0.1069441 0.05206048
vt -0.1023007 0.05243847
vt -0.09846842 0.0550875
vt -0.09647407 0.05929778
vt -0.09685206 0.06394117
vt 0.09685205 0.06394119
vt 0.1053277 0.06091416
vt 0.1083547 0.06938984
vt 0.1037114 0.06976782
vt 0.09950108 0.06777348
vt 0.09685206 0.06394128
vt 0.09647408 0.0592979
vt 0.09846842 0.05508761
vt 0.1023007 0.05243858
vt 0.1053277 0.06091425
vt 0.1053277 0.06091417
vt 0.1138033 0.05788714
vt 0.1141813 0.06253052
vt 0.112187 0.0667408
vt 0.1083547 0.06938984
vt 0.1023007 0.05243858
vt 0.106944 0.05206059
vt 0.1111543 0.05405494
vt 0.1138033 0.05788723
vt 0.1053277 0.06091426
vt -0.1337839 0.1081934
vt -0.135774 0.103981
vt -0.1267322 0.09970944
vt -0.1247422 0.1039218
vt -0.1530389 0.06808154
vt -0.1551915 0.06394994
vt -0.1463231 0.05932927
vt -0.1441704 0.06346085
vt -0.1657282 0.06198787
vt -0.1686996 0.05839971
vt -0.1609975 0.05202169
vt -0.1580262 0.05560986
vt -0.1165162 0.1495666
vt -0.1211073 0.1487755
vt -0.1194092 0.1389207
vt -0.1148181 0.1397118
vt 0.04120003 0.188486
vt 0.03775292 0.1916198
vt 0.031026 0.1842206
vt 0.03447311 0.1810867
vt 0.1069579 0.1496706
vt 0.1046435 0.1537138
vt 0.09596477 0.1487459
vt 0.09827916 0.1447027
vt 0.135774 0.103981
vt 0.1337839 0.1081933
vt 0.1247422 0.1039217
vt 0.1267322 0.0997094
vt 0.1551915 0.06394993
vt 0.1530389 0.06808151
vt 0.1441704 0.06346083
vt 0.1463231 0.05932926
vt 0.1686995 0.05839971
vt 0.1657282 0.06198787
vt 0.1580262 0.05560987
vt 0.1609975 0.0520217
vt 0.121107 0.1487758
vt 0.1165159 0.1495669
vt 0.1148178 0.1397121
vt 0.1194089 0.138921
vt -0.03775289 0.1916199
vt -0.0412 0.188486
vt -0.03447308 0.1810867
vt -0.03102597 0.1842206
vt -0.1046435 0.1537137
vt -0.1069579 0.1496706
vt -0.09827918 0.1447027
vt -0.0959648 0.1487459
vt -0.08873797 0.03763774
vt -0.09294825 0.03963208
vt -0.09759164 0.0392541
vt -0.1014239 0.03660505
vt -0.1034183 0.03239476
vt -0.1030403 0.02775138
vt -0.1003912 0.02391909
vt -0.09618095 0.02192476
vt -0.09153757 0.02230275
vt -0.08770528 0.02495179
vt -0.08571094 0.02916207
vt -0.08608894 0.03380546
vt 0.08608891 0.03380548
vt 0.09456457 0.03077844
vt 0.09759162 0.03925411
vt 0.09294824 0.0396321
vt 0.08873795 0.03763777
vt 0.08608894 0.03380557
vt 0.08571094 0.02916219
vt 0.08770529 0.02495191
vt 0.09153758 0.02230287
vt 0.0945646 0.03077853
vt 0.09456451 0.03077845
vt 0.1030402 0.02775141
vt 0.1034182 0.0323948
vt 0.1014238 0.03660508
vt 0.09759155 0.03925412
vt 0.09153751 0.02230287
vt 0.09618089 0.02192488
vt 0.1003912 0.02391922
vt 0.1030402 0.02775151
vt 0.09456454 0.03077854
o group1822638002
g mesh1822638002
usemtl mat12
f 6/6/1 5/5/1 4/4/1 3/3/1 2/2/1 1/1/1
f 12/12/2 11/11/2 10/10/2 9/9/2 8/8/2 7/7/2
f 14/16/3 13/15/3 7/14/3 1/13/3
f 16/20/4 15/19/4 5/18/4 6/17/4
f 7/26/5 8/25/5 17/24/5 16/23/5 6/22/5 1/21/5
f 3/32/6 19/31/6 18/30/6 11/29/6 12/28/6 2/27/6
f 21/36/7 20/35/7 18/34/7 19/33/7
f 20/40/8 10/39/8 11/38/8 18/37/8
f 21/44/9 15/43/9 22/42/9 20/41/9
f 20/48/10 22/47/10 9/46/10 10/45/10
f 22/52/11 17/51/11 8/50/11 9/49/11
f 15/56/12 16/55/12 17/54/12 22/53/12
f 15/60/13 21/59/13 4/58/13 5/57/13
f 21/64/14 19/63/14 3/62/14 4/61/14
f 13/68/15 23/67/15 12/66/15 7/65/15
f 23/72/16 24/71/16 2/70/16 12/69/16
f 24/76/17 14/75/17 1/74/17 2/73/17
f 26/80/18 25/79/18 13/78/18 14/77/18
f 25/84/19 27/83/19 23/82/19 13/81/19
f 27/88/20 28/87/20 24/86/20 23/85/20
f 28/92/21 26/91/21 14/90/21 24/89/21
f 28/96/22 27/95/22 25/94/22 26/93/22
f 32/100/23 31/99/23 30/98/23 29/97/23
f 31/104/24 34/103/24 33/102/24 30/101/24
f 34/108/25 36/107/25 35/106/25 33/105/25
f 36/112/26 38/111/26 37/110/26 35/109/26
f 38/116/27 40/115/27 39/114/27 37/113/27
f 40/120/28 42/119/28 41/118/28 39/117/28
f 42/124/29 44/123/29 43/122/29 41/121/29
f 44/128/30 46/127/30 45/126/30 43/125/30
f 46/132/31 48/131/31 47/130/31 45/129/31
f 48/136/32 50/135/32 49/134/32 47/133/32
f 50/140/33 52/139/33 51/138/33 49/137/33
f 52/144/34 32/143/34 29/142/34 51/141/34
f 29/156/35 30/155/35 33/154/35 35/153/35 37/152/35 39/151/35 41/150/35 43/149/35 45/148/35 47/147/35 49/146/35 51/145/35
f 52/161/36 50/160/36 48/159/36 53/158/36 32/157/36
f 53/166/37 36/165/37 34/164/37 31/163/37 32/162/37
f 48/171/38 46/170/38 44/169/38 42/168/38 53/167/38
f 53/176/39 42/175/39 40/174/39 38/173/39 36/172/39
f 57/180/40 56/179/40 55/178/40 54/177/40
f 56/184/41 59/183/41 58/182/41 55/181/41
f 59/188/42 61/187/42 60/186/42 58/185/42
f 61/192/43 63/191/43 62/190/43 60/189/43
f 63/196/44 65/195/44 64/194/44 62/193/44
f 65/200/45 67/199/45 66/198/45 64/197/45
f 67/204/46 69/203/46 68/202/46 66/201/46
f 69/208/47 71/207/47 70/206/47 68/205/47
f 71/212/48 73/211/48 72/210/48 70/209/48
f 73/216/49 75/215/49 74/214/49 72/213/49
f 75/220/50 77/219/50 76/218/50 74/217/50
f 77/224/51 57/223/51 54/222/51 76/221/51
f 54/236/52 55/235/52 58/234/52 60/233/52 62/232/52 64/231/52 66/230/52 68/229/52 70/228/52 72/227/52 74/226/52 76/225/52
f 77/241/53 75/240/53 73/239/53 78/238/53 57/237/53
f 78/246/54 61/245/54 59/244/54 56/243/54 57/242/54
f 73/251/55 71/250/55 69/249/55 67/248/55 78/247/55
f 78/256/56 67/255/56 65/254/56 63/253/56 61/252/56
f 82/260/57 81/259/57 80/258/57 79/257/57
f 81/264/58 84/263/58 83/262/58 80/261/58
f 84/268/59 86/267/59 85/266/59 83/265/59
f 86/272/60 88/271/60 87/270/60 85/269/60
f 88/276/61 90/275/61 89/274/61 87/273/61
f 90/280/62 92/279/62 91/278/62 89/277/62
f 92/284/63 94/283/63 93/282/63 91/281/63
f 94/288/64 96/287/64 95/286/64 93/285/64
f 96/292/65 98/291/65 97/290/65 95/289/65
f 98/296/66 100/295/66 99/294/66 97/293/66
f 100/300/67 102/299/67 101/298/67 99/297/67
f 102/304/68 82/303/68 79/302/68 101/301/68
f 79/316/69 80/315/69 83/314/69 85/313/69 87/312/69 89/311/69 91/310/69 93/309/69 95/308/69 97/307/69 99/306/69 101/305/69
f 102/321/70 100/320/70 98/319/70 103/318/70 82/317/70
f 103/326/71 86/325/71 84/324/71 81/323/71 82/322/71
f 98/331/72 96/330/72 94/329/72 92/328/72 103/327/72
f 103/336/73 92/335/73 90/334/73 88/333/73 86/332/73
f 107/340/74 106/339/74 105/338/74 104/337/74
f 106/344/75 109/343/75 108/342/75 105/341/75
f 109/348/76 111/347/76 110/346/76 108/345/76
f 111/352/77 113/351/77 112/350/77 110/349/77
f 113/356/78 115/355/78 114/354/78 112/353/78
f 115/360/79 117/359/79 116/358/79 114/357/79
f 117/364/80 119/363/80 118/362/80 116/361/80
f 119/368/81 121/367/81 120/366/81 118/365/81
f 121/372/82 123/371/82 122/370/82 120/369/82
f 123/376/83 125/375/83 124/374/83 122/373/83
f 125/380/84 127/379/84 126/378/84 124/377/84
f 127/384/85 107/383/85 104/382/85 126/381/85
f 104/396/86 105/395/86 108/394/86 110/393/86 112/392/86 114/391/86 116/390/86 118/389/86 120/388/86 122/387/86 124/386/86 126/385/86
f 127/401/87 125/400/87 123/399/87 128/398/87 107/397/87
f 128/406/88 111/405/88 109/404/88 106/403/88 107/402/88
f 123/411/89 121/410/89 119/409/89 117/408/89 128/407/89
f 128/416/90 117/415/90 115/414/90 113/413/90 111/412/90
