# This file uses centimeters as units for non-parametric coordinates.

mtllib LolliPop_01.mtl
g default
v -2.642578 3.289978 -0.513193
v -2.642578 -2.758606 -0.513193
v 2.595703 0.265686 -0.513193
v -2.642578 3.289978 96.254221
v -2.642578 -2.758606 96.254221
v 2.595703 0.265686 96.254221
v -0.896484 0.265686 -0.513193
v -0.896484 0.265686 96.254221
v 5.135559 3.731262 80.173624
v 1.961670 6.037354 80.173624
v -1.961670 6.037354 80.173624
v -5.135620 3.731262 80.173624
v -6.348083 0.000000 80.173624
v -5.135620 -3.731201 80.173624
v -1.961670 -6.037292 80.173624
v 1.961670 -6.037292 80.173624
v 5.135559 -3.731201 80.173624
v 6.348022 0.000000 80.173624
v 9.855225 7.160278 82.516871
v 3.764343 11.585510 82.516871
v -3.764343 11.585510 82.516871
v -9.855286 7.160278 82.516871
v -12.181763 0.000000 82.516871
v -9.855286 -7.160217 82.516871
v -3.764343 -11.585510 82.516871
v 3.764343 -11.585510 82.516871
v 9.855225 -7.160217 82.516871
v 12.181702 0.000000 82.516871
v 13.776367 10.009155 86.210772
v 5.262085 16.195190 86.210772
v -5.262146 16.195190 86.210772
v -13.776428 10.009155 86.210772
v -17.028564 0.000000 86.210772
v -13.776428 -10.009094 86.210772
v -5.262146 -16.195129 86.210772
v 5.262085 -16.195129 86.210772
v 13.776367 -10.009094 86.210772
v 17.028564 0.000000 86.210772
v 16.581482 12.047180 90.956049
v 6.333557 19.492737 90.956049
v -6.333557 19.492737 90.956049
v -16.581482 12.047180 90.956049
v -20.495850 0.000000 90.956049
v -16.581482 -12.047119 90.956049
v -6.333557 -19.492676 90.956049
v 6.333557 -19.492676 90.956049
v 16.581482 -12.047119 90.956049
v 20.495789 0.000000 90.956049
v 18.043274 13.109253 96.844233
v 6.891907 21.211182 96.844233
v -6.891968 21.211182 96.844233
v -18.043274 13.109253 96.844233
v -22.302734 0.000000 96.844233
v -18.043274 -13.109192 96.844233
v -6.891968 -21.211121 96.844233
v 6.891907 -21.211121 96.844233
v 18.043274 -13.109192 96.844233
v 22.302673 0.000000 96.844233
v 18.043274 13.109253 101.533083
v 6.891907 21.211182 101.533083
v -6.891968 21.211182 101.533083
v -18.043274 13.109253 101.533083
v -22.302734 0.000000 101.533083
v -18.043274 -13.109192 101.533083
v -6.891968 -21.211121 101.533083
v 6.891907 -21.211121 101.533083
v 18.043274 -13.109192 101.533083
v 22.302673 0.000000 101.533083
v 16.581482 12.047180 107.421259
v 6.333557 19.492737 107.421259
v -6.333557 19.492737 107.421259
v -16.581482 12.047180 107.421259
v -20.495850 0.000000 107.421259
v -16.581482 -12.047119 107.421259
v -6.333557 -19.492676 107.421259
v 6.333557 -19.492676 107.421259
v 16.581482 -12.047119 107.421259
v 20.495789 0.000000 107.421259
v 13.776367 10.009155 112.166552
v 5.262085 16.195190 112.166552
v -5.262146 16.195190 112.166552
v -13.776428 10.009155 112.166552
v -17.028564 0.000000 112.166552
v -13.776428 -10.009094 112.166552
v -5.262146 -16.195129 112.166552
v 5.262085 -16.195129 112.166552
v 13.776367 -10.009094 112.166552
v 17.028564 0.000000 112.166552
v 9.855225 7.160278 115.860438
v 3.764343 11.585510 115.860438
v -3.764343 11.585510 115.860438
v -9.855286 7.160278 115.860438
v -12.181763 0.000000 115.860438
v -9.855286 -7.160217 115.860438
v -3.764343 -11.585510 115.860438
v 3.764343 -11.585510 115.860438
v 9.855225 -7.160217 115.860438
v 12.181702 0.000000 115.860438
v 5.135559 3.731262 118.203684
v 1.961670 6.037354 118.203684
v -1.961670 6.037354 118.203684
v -5.135620 3.731262 118.203684
v -6.348083 0.000000 118.203684
v -5.135620 -3.731201 118.203684
v -1.961670 -6.037292 118.203684
v 1.961670 -6.037292 118.203684
v 5.135559 -3.731201 118.203684
v 6.348022 0.000000 118.203684
v 0.000000 0.000000 79.370867
v 0.000000 0.000000 119.006464
v 19.355469 14.062622 96.844233
v 7.393127 22.753723 96.844233
v 7.393127 22.753723 101.533083
v 19.355469 14.062622 101.533083
v -7.393188 22.753723 96.844233
v -7.393188 22.753723 101.533083
v -19.355530 14.062622 96.844233
v -19.355530 14.062622 101.533083
v -23.924622 0.000000 96.844233
v -23.924622 0.000000 101.533083
v -19.355530 -14.062561 96.844233
v -19.355530 -14.062561 101.533083
v -7.393188 -22.753723 96.844233
v -7.393188 -22.753723 101.533083
v 7.393127 -22.753723 96.844233
v 7.393127 -22.753723 101.533083
v 19.355469 -14.062561 96.844233
v 19.355469 -14.062561 101.533083
v 23.924622 0.000000 96.844233
v 23.924622 0.000000 101.533083
vt 0.421875 0.020934
vt 0.421875 0.291566
vt 0.656250 0.156250
vt 0.375000 0.312500
vt 0.458333 0.312500
vt 0.541667 0.312500
vt 0.625000 0.312500
vt 0.375000 0.688440
vt 0.458333 0.688440
vt 0.541667 0.688440
vt 0.625000 0.688440
vt 0.421875 0.708434
vt 0.421875 0.979066
vt 0.656250 0.843750
vt 0.500000 0.150000
vt 0.500000 0.837500
vt 0.000000 0.090909
vt 0.100000 0.090909
vt 0.100000 0.181818
vt 0.000000 0.181818
vt 0.200000 0.090909
vt 0.200000 0.181818
vt 0.300000 0.090909
vt 0.300000 0.181818
vt 0.400000 0.090909
vt 0.400000 0.181818
vt 0.500000 0.090909
vt 0.500000 0.181818
vt 0.600000 0.090909
vt 0.600000 0.181818
vt 0.700000 0.090909
vt 0.700000 0.181818
vt 0.800000 0.090909
vt 0.800000 0.181818
vt 0.900000 0.090909
vt 0.900000 0.181818
vt 1.000000 0.090909
vt 1.000000 0.181818
vt 0.100000 0.272727
vt 0.000000 0.272727
vt 0.200000 0.272727
vt 0.300000 0.272727
vt 0.400000 0.272727
vt 0.500000 0.272727
vt 0.600000 0.272727
vt 0.700000 0.272727
vt 0.800000 0.272727
vt 0.900000 0.272727
vt 1.000000 0.272727
vt 0.100000 0.363636
vt 0.000000 0.363636
vt 0.200000 0.363636
vt 0.300000 0.363636
vt 0.400000 0.363636
vt 0.500000 0.363636
vt 0.600000 0.363636
vt 0.700000 0.363636
vt 0.800000 0.363636
vt 0.900000 0.363636
vt 1.000000 0.363636
vt 0.100000 0.454545
vt 0.000000 0.454545
vt 0.200000 0.454545
vt 0.300000 0.454545
vt 0.400000 0.454545
vt 0.500000 0.454545
vt 0.600000 0.454545
vt 0.700000 0.454545
vt 0.800000 0.454545
vt 0.900000 0.454545
vt 1.000000 0.454545
vt 0.000000 0.454545
vt 0.100000 0.454545
vt 0.100000 0.545455
vt 0.000000 0.545455
vt 0.200000 0.454545
vt 0.200000 0.545455
vt 0.300000 0.454545
vt 0.300000 0.545455
vt 0.400000 0.454545
vt 0.400000 0.545455
vt 0.500000 0.454545
vt 0.500000 0.545455
vt 0.600000 0.454545
vt 0.600000 0.545455
vt 0.700000 0.454545
vt 0.700000 0.545455
vt 0.800000 0.454545
vt 0.800000 0.545455
vt 0.900000 0.454545
vt 0.900000 0.545455
vt 1.000000 0.454545
vt 1.000000 0.545455
vt 0.000000 0.545455
vt 0.100000 0.545455
vt 0.100000 0.636364
vt 0.000000 0.636364
vt 0.200000 0.545455
vt 0.200000 0.636364
vt 0.300000 0.545455
vt 0.300000 0.636364
vt 0.400000 0.545455
vt 0.400000 0.636364
vt 0.500000 0.545455
vt 0.500000 0.636364
vt 0.600000 0.545455
vt 0.600000 0.636364
vt 0.700000 0.545455
vt 0.700000 0.636364
vt 0.800000 0.545455
vt 0.800000 0.636364
vt 0.900000 0.545455
vt 0.900000 0.636364
vt 1.000000 0.545455
vt 1.000000 0.636364
vt 0.100000 0.727273
vt 0.000000 0.727273
vt 0.200000 0.727273
vt 0.300000 0.727273
vt 0.400000 0.727273
vt 0.500000 0.727273
vt 0.600000 0.727273
vt 0.700000 0.727273
vt 0.800000 0.727273
vt 0.900000 0.727273
vt 1.000000 0.727273
vt 0.100000 0.818182
vt 0.000000 0.818182
vt 0.200000 0.818182
vt 0.300000 0.818182
vt 0.400000 0.818182
vt 0.500000 0.818182
vt 0.600000 0.818182
vt 0.700000 0.818182
vt 0.800000 0.818182
vt 0.900000 0.818182
vt 1.000000 0.818182
vt 0.100000 0.909091
vt 0.000000 0.909091
vt 0.200000 0.909091
vt 0.300000 0.909091
vt 0.400000 0.909091
vt 0.500000 0.909091
vt 0.600000 0.909091
vt 0.700000 0.909091
vt 0.800000 0.909091
vt 0.900000 0.909091
vt 1.000000 0.909091
vt 0.050000 0.000000
vt 0.150000 0.000000
vt 0.250000 0.000000
vt 0.350000 0.000000
vt 0.450000 0.000000
vt 0.550000 0.000000
vt 0.650000 0.000000
vt 0.750000 0.000000
vt 0.850000 0.000000
vt 0.950000 0.000000
vt 0.050000 1.000000
vt 0.150000 1.000000
vt 0.250000 1.000000
vt 0.350000 1.000000
vt 0.450000 1.000000
vt 0.550000 1.000000
vt 0.650000 1.000000
vt 0.750000 1.000000
vt 0.850000 1.000000
vt 0.950000 1.000000
vn -1.000000 0.000000 0.000000
vn -1.000000 0.000000 0.000000
vn -1.000000 0.000000 0.000000
vn -1.000000 0.000000 0.000000
vn 0.499994 -0.866029 0.000000
vn 0.499994 -0.866029 0.000000
vn 0.499994 -0.866029 0.000000
vn 0.499994 -0.866029 0.000000
vn 0.499994 0.866029 0.000000
vn 0.499994 0.866029 0.000000
vn 0.499994 0.866029 0.000000
vn 0.499994 0.866029 0.000000
vn 0.000000 0.000000 -1.000000
vn 0.000000 0.000000 -1.000000
vn 0.000000 0.000000 -1.000000
vn 0.000000 0.000000 -1.000000
vn 0.000000 0.000000 1.000000
vn 0.000000 0.000000 1.000000
vn 0.000000 0.000000 1.000000
vn 0.000000 0.000000 1.000000
vn 0.264704 0.192318 -0.944958
vn 0.101110 0.311177 -0.944958
vn 0.165865 0.510480 -0.843741
vn 0.434242 0.315495 -0.843740
vn -0.101109 0.311179 -0.944957
vn -0.165864 0.510479 -0.843742
vn -0.264700 0.192317 -0.944959
vn -0.434239 0.315493 -0.843742
vn -0.327192 -0.000000 -0.944958
vn -0.536751 -0.000001 -0.843741
vn -0.264703 -0.192318 -0.944958
vn -0.434241 -0.315495 -0.843740
vn -0.101108 -0.311180 -0.944957
vn -0.165865 -0.510480 -0.843741
vn 0.101110 -0.311177 -0.944958
vn 0.165866 -0.510479 -0.843742
vn 0.264704 -0.192318 -0.944958
vn 0.434241 -0.315495 -0.843740
vn 0.327193 0.000000 -0.944958
vn 0.536751 0.000000 -0.843741
vn 0.228208 0.702354 -0.674255
vn 0.597458 0.434078 -0.674255
vn -0.228209 0.702354 -0.674255
vn -0.597459 0.434078 -0.674255
vn -0.738499 -0.000000 -0.674255
vn -0.597457 -0.434078 -0.674256
vn -0.228210 -0.702353 -0.674256
vn 0.228209 -0.702353 -0.674256
vn 0.597456 -0.434079 -0.674257
vn 0.738498 0.000000 -0.674256
vn 0.280297 0.862666 -0.421001
vn 0.733829 0.533155 -0.421000
vn -0.280296 0.862666 -0.421001
vn -0.733829 0.533155 -0.421000
vn -0.907062 0.000000 -0.420998
vn -0.733828 -0.533157 -0.420999
vn -0.280297 -0.862666 -0.421000
vn 0.280298 -0.862665 -0.421001
vn 0.733828 -0.533157 -0.420999
vn 0.907062 -0.000000 -0.420997
vn 0.295418 0.909209 -0.293372
vn 0.773421 0.561920 -0.293368
vn -0.295421 0.909208 -0.293373
vn -0.773421 0.561920 -0.293370
vn -0.956000 -0.000000 -0.293365
vn -0.773421 -0.561922 -0.293366
vn -0.295422 -0.909208 -0.293370
vn 0.295419 -0.909210 -0.293369
vn 0.773422 -0.561922 -0.293365
vn 0.956001 -0.000000 -0.293363
vn 0.781568 0.567840 -0.258283
vn 0.298531 0.918789 -0.258276
vn 0.298531 0.918790 0.258271
vn 0.781569 0.567841 0.258278
vn -0.298531 0.918789 -0.258276
vn -0.298531 0.918789 0.258276
vn -0.781569 0.567838 -0.258283
vn -0.781569 0.567839 0.258282
vn -0.966070 0.000000 -0.258282
vn -0.966070 0.000000 0.258280
vn -0.781568 -0.567839 -0.258284
vn -0.781568 -0.567839 0.258283
vn -0.298531 -0.918784 -0.258292
vn -0.298531 -0.918784 0.258292
vn 0.298531 -0.918784 -0.258292
vn 0.298531 -0.918784 0.258292
vn 0.781567 -0.567840 -0.258285
vn 0.781567 -0.567840 0.258285
vn 0.966069 0.000000 -0.258283
vn 0.966069 0.000000 0.258283
vn 0.773420 0.561924 0.293366
vn 0.295419 0.909209 0.293370
vn 0.280298 0.862666 0.421000
vn 0.733828 0.533157 0.420999
vn -0.295421 0.909207 0.293374
vn -0.280296 0.862666 0.421001
vn -0.773421 0.561921 0.293369
vn -0.733829 0.533156 0.420999
vn -0.956001 0.000000 0.293364
vn -0.907062 0.000000 0.420997
vn -0.773420 -0.561922 0.293369
vn -0.733828 -0.533157 0.420999
vn -0.295422 -0.909207 0.293374
vn -0.280297 -0.862665 0.421001
vn 0.295420 -0.909210 0.293367
vn 0.280298 -0.862666 0.420999
vn 0.773420 -0.561925 0.293362
vn 0.733828 -0.533159 0.420996
vn 0.956001 -0.000000 0.293364
vn 0.907062 0.000000 0.420997
vn 0.228209 0.702354 0.674255
vn 0.597458 0.434078 0.674255
vn -0.228210 0.702354 0.674254
vn -0.597460 0.434078 0.674254
vn -0.738499 0.000000 0.674254
vn -0.597459 -0.434080 0.674254
vn -0.228212 -0.702355 0.674253
vn 0.228210 -0.702354 0.674255
vn 0.597457 -0.434079 0.674256
vn 0.738499 0.000000 0.674255
vn 0.165865 0.510479 0.843741
vn 0.434242 0.315493 0.843741
vn -0.165865 0.510479 0.843742
vn -0.434240 0.315493 0.843741
vn -0.536751 0.000000 0.843741
vn -0.434240 -0.315494 0.843741
vn -0.165866 -0.510480 0.843741
vn 0.165866 -0.510479 0.843741
vn 0.434240 -0.315493 0.843741
vn 0.536750 0.000000 0.843742
vn 0.101109 0.311178 0.944958
vn 0.264704 0.192318 0.944958
vn -0.101109 0.311181 0.944957
vn -0.264701 0.192317 0.944959
vn -0.327193 -0.000000 0.944957
vn -0.264703 -0.192318 0.944958
vn -0.101108 -0.311179 0.944957
vn 0.101110 -0.311179 0.944957
vn 0.264704 -0.192320 0.944958
vn 0.327195 0.000000 0.944957
vn -0.000000 -0.000000 -1.000000
vn 0.000001 -0.000000 1.000000
vn -0.000000 0.000000 -1.000000
vn -0.000000 0.000000 -1.000000
vn -0.000001 0.000000 1.000000
vn -0.000001 0.000000 1.000000
vn 0.000000 0.000000 -1.000000
vn -0.000000 0.000000 1.000000
vn 0.000000 0.000000 -1.000000
vn -0.000000 0.000000 1.000000
vn -0.000000 0.000000 -1.000000
vn 0.000000 0.000000 1.000000
vn 0.000002 0.000000 -1.000000
vn 0.000001 0.000000 1.000000
vn 0.000002 0.000000 -1.000000
vn 0.000001 0.000000 1.000000
vn -0.000001 0.000000 -1.000000
vn -0.000001 0.000000 1.000000
vn -0.000001 0.000000 -1.000000
vn -0.000001 0.000000 1.000000
vn 0.000000 0.000000 -1.000000
vn -0.000000 0.000000 1.000000
s off
g pCylinder59
usemtl blinn6SG
f 1/4/1 2/5/2 5/9/3 4/8/4
f 2/5/5 3/6/6 6/10/7 5/9/8
f 3/6/9 1/7/10 4/11/11 6/10/12
s 1
f 2/2/13 1/1/14 7/15/15
f 3/3/16 2/2/13 7/15/15
f 1/1/14 3/3/16 7/15/15
s 2
f 4/13/17 5/12/18 8/16/19
f 5/12/18 6/14/20 8/16/19
f 6/14/20 4/13/17 8/16/19
s 3
usemtl blinn8SG
f 9/17/21 10/18/22 20/19/23 19/20/24
f 10/18/22 11/21/25 21/22/26 20/19/23
f 11/21/25 12/23/27 22/24/28 21/22/26
f 12/23/27 13/25/29 23/26/30 22/24/28
f 13/25/29 14/27/31 24/28/32 23/26/30
f 14/27/31 15/29/33 25/30/34 24/28/32
f 15/29/33 16/31/35 26/32/36 25/30/34
f 16/31/35 17/33/37 27/34/38 26/32/36
f 17/33/37 18/35/39 28/36/40 27/34/38
f 18/35/39 9/37/21 19/38/24 28/36/40
f 19/20/24 20/19/23 30/39/41 29/40/42
f 20/19/23 21/22/26 31/41/43 30/39/41
f 21/22/26 22/24/28 32/42/44 31/41/43
f 22/24/28 23/26/30 33/43/45 32/42/44
f 23/26/30 24/28/32 34/44/46 33/43/45
f 24/28/32 25/30/34 35/45/47 34/44/46
f 25/30/34 26/32/36 36/46/48 35/45/47
f 26/32/36 27/34/38 37/47/49 36/46/48
f 27/34/38 28/36/40 38/48/50 37/47/49
f 28/36/40 19/38/24 29/49/42 38/48/50
f 29/40/42 30/39/41 40/50/51 39/51/52
f 30/39/41 31/41/43 41/52/53 40/50/51
f 31/41/43 32/42/44 42/53/54 41/52/53
f 32/42/44 33/43/45 43/54/55 42/53/54
f 33/43/45 34/44/46 44/55/56 43/54/55
f 34/44/46 35/45/47 45/56/57 44/55/56
f 35/45/47 36/46/48 46/57/58 45/56/57
f 36/46/48 37/47/49 47/58/59 46/57/58
f 37/47/49 38/48/50 48/59/60 47/58/59
f 38/48/50 29/49/42 39/60/52 48/59/60
f 39/51/52 40/50/51 50/61/61 49/62/62
f 40/50/51 41/52/53 51/63/63 50/61/61
f 41/52/53 42/53/54 52/64/64 51/63/63
f 42/53/54 43/54/55 53/65/65 52/64/64
f 43/54/55 44/55/56 54/66/66 53/65/65
f 44/55/56 45/56/57 55/67/67 54/66/66
f 45/56/57 46/57/58 56/68/68 55/67/67
f 46/57/58 47/58/59 57/69/69 56/68/68
f 47/58/59 48/59/60 58/70/70 57/69/69
f 48/59/60 39/60/52 49/71/62 58/70/70
s 4
f 111/72/71 112/73/72 113/74/73 114/75/74
f 112/73/72 115/76/75 116/77/76 113/74/73
f 115/76/75 117/78/77 118/79/78 116/77/76
f 117/78/77 119/80/79 120/81/80 118/79/78
f 119/80/79 121/82/81 122/83/82 120/81/80
f 121/82/81 123/84/83 124/85/84 122/83/82
f 123/84/83 125/86/85 126/87/86 124/85/84
f 125/86/85 127/88/87 128/89/88 126/87/86
f 127/88/87 129/90/89 130/91/90 128/89/88
f 129/90/89 111/92/71 114/93/74 130/91/90
s 5
f 59/94/91 60/95/92 70/96/93 69/97/94
f 60/95/92 61/98/95 71/99/96 70/96/93
f 61/98/95 62/100/97 72/101/98 71/99/96
f 62/100/97 63/102/99 73/103/100 72/101/98
f 63/102/99 64/104/101 74/105/102 73/103/100
f 64/104/101 65/106/103 75/107/104 74/105/102
f 65/106/103 66/108/105 76/109/106 75/107/104
f 66/108/105 67/110/107 77/111/108 76/109/106
f 67/110/107 68/112/109 78/113/110 77/111/108
f 68/112/109 59/114/91 69/115/94 78/113/110
f 69/97/94 70/96/93 80/116/111 79/117/112
f 70/96/93 71/99/96 81/118/113 80/116/111
f 71/99/96 72/101/98 82/119/114 81/118/113
f 72/101/98 73/103/100 83/120/115 82/119/114
f 73/103/100 74/105/102 84/121/116 83/120/115
f 74/105/102 75/107/104 85/122/117 84/121/116
f 75/107/104 76/109/106 86/123/118 85/122/117
f 76/109/106 77/111/108 87/124/119 86/123/118
f 77/111/108 78/113/110 88/125/120 87/124/119
f 78/113/110 69/115/94 79/126/112 88/125/120
f 79/117/112 80/116/111 90/127/121 89/128/122
f 80/116/111 81/118/113 91/129/123 90/127/121
f 81/118/113 82/119/114 92/130/124 91/129/123
f 82/119/114 83/120/115 93/131/125 92/130/124
f 83/120/115 84/121/116 94/132/126 93/131/125
f 84/121/116 85/122/117 95/133/127 94/132/126
f 85/122/117 86/123/118 96/134/128 95/133/127
f 86/123/118 87/124/119 97/135/129 96/134/128
f 87/124/119 88/125/120 98/136/130 97/135/129
f 88/125/120 79/126/112 89/137/122 98/136/130
f 89/128/122 90/127/121 100/138/131 99/139/132
f 90/127/121 91/129/123 101/140/133 100/138/131
f 91/129/123 92/130/124 102/141/134 101/140/133
f 92/130/124 93/131/125 103/142/135 102/141/134
f 93/131/125 94/132/126 104/143/136 103/142/135
f 94/132/126 95/133/127 105/144/137 104/143/136
f 95/133/127 96/134/128 106/145/138 105/144/137
f 96/134/128 97/135/129 107/146/139 106/145/138
f 97/135/129 98/136/130 108/147/140 107/146/139
f 98/136/130 89/137/122 99/148/132 108/147/140
s 3
f 10/18/22 9/17/21 109/149/141
f 11/21/25 10/18/22 109/150/141
f 12/23/27 11/21/25 109/151/141
f 13/25/29 12/23/27 109/152/141
f 14/27/31 13/25/29 109/153/141
f 15/29/33 14/27/31 109/154/141
f 16/31/35 15/29/33 109/155/141
f 17/33/37 16/31/35 109/156/141
f 18/35/39 17/33/37 109/157/141
f 9/37/21 18/35/39 109/158/141
s 5
f 99/139/132 100/138/131 110/159/142
f 100/138/131 101/140/133 110/160/142
f 101/140/133 102/141/134 110/161/142
f 102/141/134 103/142/135 110/162/142
f 103/142/135 104/143/136 110/163/142
f 104/143/136 105/144/137 110/164/142
f 105/144/137 106/145/138 110/165/142
f 106/145/138 107/146/139 110/166/142
f 107/146/139 108/147/140 110/167/142
f 108/147/140 99/148/132 110/168/142
s 4
f 49/62/143 50/61/144 112/73/72 111/72/71
f 60/95/145 59/94/146 114/75/74 113/74/73
f 50/61/144 51/63/147 115/76/75 112/73/72
f 61/98/148 60/95/145 113/74/73 116/77/76
f 51/63/147 52/64/149 117/78/77 115/76/75
f 62/100/150 61/98/148 116/77/76 118/79/78
f 52/64/149 53/65/151 119/80/79 117/78/77
f 63/102/152 62/100/150 118/79/78 120/81/80
f 53/65/151 54/66/153 121/82/81 119/80/79
f 64/104/154 63/102/152 120/81/80 122/83/82
f 54/66/153 55/67/155 123/84/83 121/82/81
f 65/106/156 64/104/154 122/83/82 124/85/84
f 55/67/155 56/68/157 125/86/85 123/84/83
f 66/108/158 65/106/156 124/85/84 126/87/86
f 56/68/157 57/69/159 127/88/87 125/86/85
f 67/110/160 66/108/158 126/87/86 128/89/88
f 57/69/159 58/70/161 129/90/89 127/88/87
f 68/112/162 67/110/160 128/89/88 130/91/90
f 58/70/161 49/71/143 111/92/71 129/90/89
f 59/114/146 68/112/162 130/91/90 114/93/74
